<svg width="3425" height="3425" viewBox="0 0 3425 3425" fill="none" xmlns="http://www.w3.org/2000/svg">
<path d="M2923.28 501.557C2602.14 180.416 2166.58 0.000244141 1712.42 0.000244141V1712.42L2923.28 501.557Z" fill="#A09269"/>
<path d="M3424.84 1712.42C3424.84 1258.25 3244.43 822.697 2923.28 501.556L1712.42 1712.42H3424.84Z" fill="#5A4F19"/>
<path d="M2923.28 2923.28C3244.43 2602.14 3424.84 2166.58 3424.84 1712.42H1712.42L2923.28 2923.28Z" fill="#A09269"/>
<path d="M1712.42 3424.84C2166.58 3424.84 2602.14 3244.43 2923.28 2923.28L1712.42 1712.42V3424.84Z" fill="#5A4F19"/>
<path d="M501.554 501.557C822.695 180.416 1258.25 0.000244141 1712.42 0.000244141V1712.42L501.554 501.557Z" fill="#5A4F19"/>
<path d="M0 1712.42C0 1258.25 180.416 822.697 501.555 501.556L1712.42 1712.42H0Z" fill="#A09269"/>
<path d="M501.557 2923.28C180.416 2602.14 0 2166.58 0 1712.42H1712.42L501.557 2923.28Z" fill="#5A4F19"/>
<path d="M1712.42 3424.84C1258.25 3424.84 822.695 3244.43 501.554 2923.28L1712.42 1712.42V3424.84Z" fill="#A09269"/>
<path d="M1712.42 2568.63C2185.29 2568.63 2568.63 2185.29 2568.63 1712.42C2568.63 1239.55 2185.29 856.209 1712.42 856.209C1239.55 856.209 856.209 1239.55 856.209 1712.42C856.209 2185.29 1239.55 2568.63 1712.42 2568.63Z" fill="black" fill-opacity="0.125"/>
<g clip-path="url(#clip0_2045_16880)">
<mask id="mask0_2045_16880" style="mask-type:luminance" maskUnits="userSpaceOnUse" x="928" y="145" width="492" height="492">
<path d="M928.329 312.445L1252.6 145.291L1419.75 469.558L1095.48 636.712L928.329 312.445Z" fill="white"/>
</mask>
<g mask="url(#mask0_2045_16880)">
<path d="M1299.53 259.714C1275.56 213.207 1218.43 194.941 1171.93 218.91C1143.7 233.461 1125.97 260.236 1121.67 289.413C1095.42 275.988 1063.32 274.897 1035.1 289.444C988.589 313.418 970.323 370.552 994.296 417.058C997.692 423.646 1001.82 429.598 1006.42 435.012C1055.57 501.617 1175.83 536.633 1244.57 527.835C1291.61 476.955 1332.87 358.67 1307.1 280.016C1305.38 273.116 1302.93 266.302 1299.53 259.714Z" fill="#F4ADAB"/>
<path d="M1268.23 292.467C1263.95 284.168 1258.08 276.792 1250.96 270.761C1243.83 264.731 1235.58 260.163 1226.69 257.319C1217.8 254.475 1208.43 253.411 1199.13 254.187C1189.82 254.963 1180.76 257.564 1172.46 261.842C1162.42 267.021 1153.75 274.525 1147.19 283.729C1140.63 292.933 1136.36 303.572 1134.74 314.759C1124.69 309.587 1113.55 306.89 1102.25 306.894C1090.95 306.898 1079.81 309.602 1069.76 314.781C1053 323.422 1040.36 338.366 1034.62 356.327C1028.88 374.289 1030.5 393.796 1039.14 410.557C1041.69 415.498 1044.79 419.968 1048.24 424.026C1085.12 474.019 1175.39 500.307 1226.98 493.695C1262.29 455.514 1293.25 366.733 1273.92 307.7C1272.63 302.525 1270.78 297.408 1268.23 292.467Z" fill="#EA5959"/>
<path d="M1238.53 323.524C1235.6 317.841 1231.58 312.79 1226.7 308.66C1221.82 304.53 1216.18 301.401 1210.09 299.453C1204 297.505 1197.58 296.775 1191.21 297.306C1184.84 297.836 1178.64 299.616 1172.95 302.544C1166.07 306.089 1160.14 311.228 1155.64 317.533C1151.15 323.838 1148.23 331.125 1147.13 338.788C1140.24 335.244 1132.62 333.397 1124.87 333.398C1117.13 333.4 1109.5 335.252 1102.62 338.799C1091.14 344.716 1082.49 354.951 1078.55 367.252C1074.62 379.553 1075.74 392.912 1081.65 404.391C1083.4 407.779 1085.52 410.831 1087.88 413.614C1113.14 447.855 1174.96 465.845 1210.29 461.327C1234.45 435.177 1255.67 374.383 1242.43 333.957C1241.54 330.408 1240.28 326.911 1238.53 323.524Z" fill="#CA3E3E"/>
</g>
</g>
<mask id="mask1_2045_16880" style="mask-type:luminance" maskUnits="userSpaceOnUse" x="123" y="960" width="495" height="495">
<path d="M123.513 1280.96L297.073 960.078L617.957 1133.64L444.397 1454.52L123.513 1280.96Z" fill="white"/>
</mask>
<g mask="url(#mask1_2045_16880)">
<path d="M400.364 1028.11C354.343 1003.22 296.857 1020.35 271.969 1066.36C256.861 1094.29 257.318 1126.4 270.215 1152.93C240.962 1156.64 213.836 1173.84 198.732 1201.77C173.84 1247.79 190.968 1305.27 236.99 1330.16C243.509 1333.69 250.273 1336.28 257.128 1338.15C335.268 1365.45 454.34 1326.56 506.149 1280.54C516.306 1212 483.694 1091.04 418.064 1040.61C412.752 1035.88 406.883 1031.64 400.364 1028.11Z" fill="#F4ADAB"/>
<path d="M392.978 1072.81C384.766 1068.37 375.759 1065.59 366.473 1064.63C357.186 1063.67 347.8 1064.54 338.852 1067.21C329.904 1069.87 321.569 1074.27 314.322 1080.16C307.076 1086.05 301.06 1093.31 296.618 1101.52C291.24 1111.46 288.314 1122.54 288.085 1133.84C287.856 1145.15 290.33 1156.34 295.3 1166.49C284.084 1167.89 273.364 1171.94 264.032 1178.32C254.7 1184.69 247.026 1193.2 241.65 1203.15C232.678 1219.73 230.663 1239.2 236.048 1257.27C241.433 1275.35 253.776 1290.54 270.362 1299.51C275.252 1302.15 280.335 1304.1 285.466 1305.51C344.117 1326 433.49 1296.81 472.369 1262.26C480 1210.82 455.515 1120.04 406.267 1082.19C402.279 1078.64 397.867 1075.46 392.978 1072.81Z" fill="#EA5959"/>
<path d="M385.95 1115.21C380.327 1112.17 374.16 1110.26 367.801 1109.6C361.442 1108.94 355.015 1109.54 348.888 1111.37C342.761 1113.19 337.053 1116.2 332.09 1120.23C327.127 1124.26 323.007 1129.23 319.964 1134.86C316.279 1141.66 314.275 1149.25 314.119 1156.99C313.963 1164.74 315.66 1172.4 319.069 1179.35C311.387 1180.31 304.044 1183.08 297.651 1187.45C291.259 1191.81 286.003 1197.64 282.32 1204.45C276.176 1215.81 274.796 1229.15 278.484 1241.52C282.171 1253.9 290.625 1264.31 301.984 1270.45C305.336 1272.26 308.812 1273.59 312.324 1274.56C352.497 1288.59 413.696 1268.59 440.33 1244.94C445.539 1209.72 428.785 1147.55 395.052 1121.63C392.317 1119.2 389.302 1117.02 385.95 1115.21Z" fill="#CA3E3E"/>
</g>
<mask id="mask2_2045_16880" style="mask-type:luminance" maskUnits="userSpaceOnUse" x="176" y="2024" width="479" height="478">
<path d="M317.929 2501.55L176.931 2165.09L513.397 2024.09L654.395 2360.56L317.929 2501.55Z" fill="white"/>
</mask>
<g mask="url(#mask2_2045_16880)">
<path d="M294.697 2127.34C246.441 2147.56 223.715 2203.07 243.933 2251.32C256.208 2280.61 281.498 2300.4 310.244 2307C294.785 2332.11 291.16 2364.02 303.431 2393.3C323.653 2441.56 379.164 2464.28 427.42 2444.06C434.256 2441.2 440.515 2437.55 446.276 2433.39C516.557 2389.67 560.971 2272.54 557.635 2203.33C510.632 2152.42 395.978 2101.93 315.534 2121.4C308.519 2122.57 301.533 2124.48 294.697 2127.34Z" fill="#F4ADAB"/>
<path d="M324.876 2161.14C316.265 2164.75 308.448 2170.02 301.873 2176.65C295.297 2183.28 290.092 2191.13 286.554 2199.78C283.016 2208.42 281.215 2217.67 281.253 2227C281.291 2236.34 283.168 2245.58 286.777 2254.19C291.145 2264.62 297.94 2273.85 306.597 2281.11C315.254 2288.38 325.522 2293.48 336.546 2295.98C330.596 2305.59 327.027 2316.48 326.138 2327.74C325.248 2339.01 327.063 2350.33 331.432 2360.75C338.72 2378.14 352.618 2391.93 370.07 2399.07C387.521 2406.22 407.095 2406.14 424.487 2398.85C429.614 2396.7 434.315 2393.96 438.633 2390.85C491.385 2358.03 524.726 2270.12 522.213 2218.17C486.943 2179.96 400.887 2142.07 340.511 2156.67C335.25 2157.56 330.003 2158.99 324.876 2161.14Z" fill="#EA5959"/>
<path d="M353.488 2193.21C347.591 2195.68 342.238 2199.28 337.736 2203.82C333.233 2208.36 329.668 2213.74 327.244 2219.66C324.821 2225.57 323.587 2231.91 323.612 2238.3C323.637 2244.7 324.921 2251.02 327.391 2256.92C330.381 2264.06 335.034 2270.38 340.964 2275.36C346.894 2280.34 353.928 2283.82 361.479 2285.53C357.403 2292.11 354.958 2299.57 354.347 2307.29C353.737 2315 354.98 2322.76 357.972 2329.9C362.964 2341.81 372.482 2351.25 384.433 2356.14C396.385 2361.03 409.79 2360.98 421.701 2355.99C425.216 2354.51 428.427 2352.64 431.388 2350.51C467.519 2328.03 490.339 2267.83 488.628 2232.25C464.47 2206.09 405.543 2180.14 364.197 2190.15C360.589 2190.75 357.003 2191.73 353.488 2193.21Z" fill="#CA3E3E"/>
</g>
<mask id="mask3_2045_16880" style="mask-type:luminance" maskUnits="userSpaceOnUse" x="943" y="2767" width="466" height="467">
<path d="M1287.33 3233.21L943.224 3112.05L1064.38 2767.95L1408.49 2889.1L1287.33 3233.21Z" fill="white"/>
</mask>
<g mask="url(#mask3_2045_16880)">
<path d="M994.25 2999.39C976.873 3048.74 1002.79 3102.84 1052.14 3120.21C1082.09 3130.76 1113.73 3125.28 1137.91 3108.39C1146.16 3136.69 1167.4 3160.79 1197.34 3171.34C1246.69 3188.71 1300.79 3162.79 1318.16 3113.44C1320.63 3106.45 1322.12 3099.36 1322.9 3092.3C1337.62 3010.85 1280.56 2899.34 1226.99 2855.38C1157.71 2856.08 1043.35 2907.23 1003.82 2979.95C999.984 2985.94 996.711 2992.4 994.25 2999.39Z" fill="#F4ADAB"/>
<path d="M1039.56 2999.69C1036.46 3008.5 1035.12 3017.83 1035.62 3027.15C1036.13 3036.47 1038.47 3045.6 1042.5 3054.03C1046.53 3062.45 1052.19 3069.99 1059.14 3076.22C1066.09 3082.46 1074.2 3087.26 1083 3090.36C1093.66 3094.12 1105.07 3095.27 1116.27 3093.73C1127.46 3092.18 1138.13 3087.99 1147.38 3081.49C1150.51 3092.35 1156.2 3102.3 1163.95 3110.52C1171.71 3118.74 1181.32 3124.98 1191.98 3128.74C1209.77 3135 1229.32 3133.94 1246.32 3125.79C1263.33 3117.64 1276.4 3103.07 1282.66 3085.29C1284.51 3080.04 1285.63 3074.72 1286.22 3069.43C1297.27 3008.29 1254.45 2924.59 1214.24 2891.61C1162.24 2892.13 1076.41 2930.53 1046.73 2985.1C1043.86 2989.59 1041.41 2994.45 1039.56 2999.69Z" fill="#EA5959"/>
<path d="M1082.53 2999.98C1080.41 3006.01 1079.49 3012.4 1079.83 3018.79C1080.18 3025.17 1081.78 3031.42 1084.54 3037.19C1087.3 3042.95 1091.17 3048.12 1095.93 3052.39C1100.69 3056.66 1106.24 3059.95 1112.27 3062.08C1119.57 3064.65 1127.38 3065.44 1135.05 3064.38C1142.72 3063.32 1150.03 3060.45 1156.36 3055.99C1158.5 3063.43 1162.39 3070.25 1167.71 3075.88C1173.02 3081.51 1179.6 3085.78 1186.91 3088.36C1199.09 3092.64 1212.47 3091.92 1224.12 3086.34C1235.76 3080.76 1244.72 3070.78 1249.01 3058.6C1250.27 3055 1251.03 3051.36 1251.44 3047.74C1259.01 3005.87 1229.68 2948.56 1202.14 2925.95C1166.54 2926.33 1107.76 2952.61 1087.44 2989.99C1085.47 2993.07 1083.8 2996.39 1082.53 2999.98Z" fill="#CA3E3E"/>
</g>
<mask id="mask4_2045_16880" style="mask-type:luminance" maskUnits="userSpaceOnUse" x="2066" y="2745" width="502" height="503">
<path d="M2567.73 3056.64L2256.58 3247.09L2066.12 2935.94L2377.28 2745.48L2567.73 3056.64Z" fill="white"/>
</mask>
<g mask="url(#mask4_2045_16880)">
<path d="M2201.38 3136.42C2228.69 3181.04 2287.01 3195.07 2331.63 3167.76C2358.72 3151.18 2374.43 3123.18 2376.59 3093.77C2403.76 3105.23 2435.85 3103.97 2462.93 3087.4C2507.55 3060.08 2521.59 3001.76 2494.27 2957.14C2490.4 2950.81 2485.85 2945.18 2480.86 2940.12C2426.97 2877.29 2304.46 2851.18 2236.55 2864.99C2193.37 2919.18 2160.88 3040.17 2192.34 3116.72C2194.56 3123.48 2197.51 3130.09 2201.38 3136.42Z" fill="#F4ADAB"/>
<path d="M2230.2 3101.46C2235.07 3109.42 2241.46 3116.35 2249.01 3121.84C2256.56 3127.33 2265.12 3131.29 2274.2 3133.47C2283.28 3135.65 2292.7 3136.03 2301.92 3134.57C2311.14 3133.12 2319.99 3129.86 2327.95 3124.99C2337.59 3119.09 2345.68 3110.97 2351.55 3101.31C2357.42 3091.65 2360.9 3080.72 2361.69 3069.45C2372.09 3073.87 2383.4 3075.74 2394.67 3074.91C2405.94 3074.08 2416.85 3070.57 2426.49 3064.67C2442.58 3054.82 2454.09 3038.99 2458.5 3020.66C2462.91 3002.32 2459.86 2982.99 2450.02 2966.91C2447.12 2962.17 2443.69 2957.93 2439.96 2954.14C2399.51 2906.98 2307.56 2887.38 2256.6 2897.75C2224.18 2938.41 2199.8 3029.23 2223.4 3086.68C2225.08 3091.75 2227.29 3096.72 2230.2 3101.46Z" fill="#EA5959"/>
<path d="M2257.55 3068.31C2260.89 3073.76 2265.27 3078.5 2270.44 3082.27C2275.61 3086.03 2281.47 3088.73 2287.68 3090.23C2293.9 3091.73 2300.35 3091.99 2306.66 3090.99C2312.98 3089.99 2319.03 3087.76 2324.49 3084.43C2331.09 3080.39 2336.63 3074.83 2340.65 3068.21C2344.67 3061.59 2347.05 3054.11 2347.59 3046.39C2354.71 3049.42 2362.46 3050.7 2370.18 3050.13C2377.9 3049.57 2385.37 3047.16 2391.97 3043.12C2402.99 3036.38 2410.87 3025.54 2413.89 3012.98C2416.92 3000.42 2414.83 2987.18 2408.08 2976.17C2406.09 2972.92 2403.75 2970.03 2401.2 2967.42C2373.5 2935.13 2310.52 2921.71 2275.62 2928.81C2253.44 2956.66 2236.73 3018.84 2252.9 3058.19C2254.05 3061.66 2255.56 3065.06 2257.55 3068.31Z" fill="#CA3E3E"/>
</g>
<mask id="mask5_2045_16880" style="mask-type:luminance" maskUnits="userSpaceOnUse" x="2773" y="1981" width="483" height="484">
<path d="M3255.76 2131.29L3106.38 2464.12L2773.55 2314.74L2922.93 1981.91L3255.76 2131.29Z" fill="white"/>
</mask>
<g mask="url(#mask5_2045_16880)">
<path d="M2998.35 2403.91C3046.08 2425.33 3102.14 2404 3123.57 2356.28C3136.57 2327.3 3133.74 2295.32 3118.92 2269.82C3147.82 2263.95 3173.6 2244.8 3186.6 2215.83C3208.02 2168.1 3186.7 2112.03 3138.96 2090.61C3132.2 2087.58 3125.26 2085.49 3118.29 2084.13C3038.35 2062.68 2922.47 2110.26 2874.2 2159.98C2869.14 2229.09 2910.6 2347.31 2979.77 2392.75C2985.42 2397.07 2991.59 2400.87 2998.35 2403.91Z" fill="#F4ADAB"/>
<path d="M3002.42 2358.78C3010.93 2362.6 3020.12 2364.71 3029.45 2364.99C3038.79 2365.26 3048.08 2363.69 3056.81 2360.37C3065.53 2357.05 3073.52 2352.05 3080.31 2345.64C3087.11 2339.23 3092.57 2331.55 3096.39 2323.04C3101.02 2312.72 3103.12 2301.45 3102.51 2290.17C3101.91 2278.88 3098.61 2267.9 3092.91 2258.14C3103.99 2255.92 3114.38 2251.09 3123.22 2244.04C3132.05 2236.99 3139.08 2227.94 3143.7 2217.63C3151.42 2200.42 3152 2180.86 3145.29 2163.23C3138.59 2145.61 3125.15 2131.37 3107.95 2123.65C3102.88 2121.37 3097.67 2119.81 3092.44 2118.78C3032.44 2102.68 2945.47 2138.39 2909.25 2175.71C2905.44 2227.57 2936.56 2316.3 2988.47 2350.42C2992.71 2353.65 2997.34 2356.5 3002.42 2358.78Z" fill="#EA5959"/>
<path d="M3006.29 2315.98C3012.12 2318.6 3018.41 2320.04 3024.8 2320.23C3031.19 2320.42 3037.56 2319.35 3043.54 2317.07C3049.51 2314.8 3054.98 2311.38 3059.63 2306.99C3064.28 2302.6 3068.03 2297.35 3070.65 2291.51C3073.82 2284.45 3075.26 2276.73 3074.84 2269C3074.42 2261.27 3072.16 2253.75 3068.25 2247.07C3075.84 2245.55 3082.96 2242.24 3089.01 2237.42C3095.06 2232.59 3099.88 2226.39 3103.05 2219.32C3108.33 2207.54 3108.72 2194.14 3104.13 2182.07C3099.54 2170 3090.34 2160.25 3078.56 2154.96C3075.08 2153.4 3071.52 2152.34 3067.94 2151.63C3026.85 2140.6 2967.29 2165.07 2942.48 2190.62C2939.88 2226.13 2961.18 2286.9 2996.74 2310.25C2999.65 2312.47 3002.81 2314.42 3006.29 2315.98Z" fill="#CA3E3E"/>
</g>
<mask id="mask6_2045_16880" style="mask-type:luminance" maskUnits="userSpaceOnUse" x="2784" y="982" width="455" height="455">
<path d="M3134.51 982.534L3238.34 1332.26L2888.61 1436.09L2784.79 1086.36L3134.51 982.534Z" fill="white"/>
</mask>
<g mask="url(#mask6_2045_16880)">
<path d="M3117.17 1357.07C3167.33 1342.17 3195.92 1289.44 3181.03 1239.29C3171.99 1208.85 3148.99 1186.45 3121.12 1176.78C3139.21 1153.49 3146.26 1122.15 3137.22 1091.72C3122.33 1041.56 3069.6 1012.97 3019.44 1027.86C3012.33 1029.97 3005.72 1032.92 2999.54 1036.43C2924.95 1072.31 2868.14 1183.95 2863.98 1253.12C2905.21 1308.81 3013.74 1371.39 3095.82 1360.72C3102.92 1360.32 3110.07 1359.17 3117.17 1357.07Z" fill="#F4ADAB"/>
<path d="M3090.83 1320.2C3099.78 1317.55 3108.12 1313.15 3115.37 1307.27C3122.63 1301.4 3128.65 1294.14 3133.1 1285.94C3137.55 1277.73 3140.34 1268.73 3141.31 1259.44C3142.28 1250.15 3141.42 1240.77 3138.76 1231.82C3135.54 1220.98 3129.78 1211.07 3121.96 1202.91C3114.14 1194.75 3104.48 1188.57 3093.79 1184.9C3100.75 1175.99 3105.47 1165.55 3107.57 1154.44C3109.67 1143.34 3109.09 1131.89 3105.87 1121.05C3100.51 1102.98 3088.18 1087.77 3071.6 1078.78C3055.03 1069.8 3035.56 1067.76 3017.48 1073.13C3012.15 1074.71 3007.18 1076.93 3002.55 1079.55C2946.56 1106.48 2903.92 1190.27 2900.81 1242.19C2931.75 1283.99 3013.2 1330.95 3074.8 1322.96C3080.13 1322.65 3085.5 1321.79 3090.83 1320.2Z" fill="#EA5959"/>
<path d="M3065.86 1285.24C3071.99 1283.42 3077.7 1280.41 3082.66 1276.39C3087.63 1272.36 3091.75 1267.4 3094.8 1261.78C3097.85 1256.16 3099.76 1249.99 3100.43 1243.63C3101.09 1237.27 3100.5 1230.85 3098.68 1224.72C3096.48 1217.3 3092.54 1210.51 3087.18 1204.92C3081.82 1199.33 3075.21 1195.1 3067.88 1192.59C3072.65 1186.49 3075.88 1179.34 3077.32 1171.73C3078.76 1164.13 3078.37 1156.29 3076.16 1148.86C3072.49 1136.48 3064.04 1126.07 3052.69 1119.92C3041.34 1113.76 3028.01 1112.37 3015.62 1116.04C3011.97 1117.13 3008.58 1118.65 3005.4 1120.44C2967.06 1138.88 2937.87 1196.27 2935.72 1231.83C2956.92 1260.44 3012.69 1292.61 3054.88 1287.12C3058.53 1286.91 3062.2 1286.32 3065.86 1285.24Z" fill="#CA3E3E"/>
</g>
<mask id="mask7_2045_16880" style="mask-type:luminance" maskUnits="userSpaceOnUse" x="2021" y="174" width="490" height="490">
<path d="M2184.81 174.049L2510.89 337.649L2347.29 663.724L2021.21 500.124L2184.81 174.049Z" fill="white"/>
</mask>
<g mask="url(#mask7_2045_16880)">
<path d="M2446.06 442.975C2469.53 396.209 2450.64 339.278 2403.88 315.818C2375.49 301.576 2343.41 303.022 2317.3 316.729C2312.69 287.605 2294.66 261.021 2266.28 246.783C2219.52 223.32 2162.59 242.209 2139.12 288.975C2135.8 295.6 2133.42 302.44 2131.76 309.35C2106.87 388.293 2149.41 506.112 2197.01 556.48C2265.83 564.522 2385.73 528.202 2434.11 461.051C2438.68 455.596 2442.74 449.599 2446.06 442.975Z" fill="#F4ADAB"/>
<path d="M2401.15 436.962C2405.34 428.618 2407.84 419.53 2408.51 410.218C2409.19 400.906 2408.02 391.552 2405.09 382.69C2402.15 373.828 2397.49 365.632 2391.38 358.57C2385.27 351.508 2377.84 345.718 2369.49 341.532C2359.39 336.462 2348.22 333.879 2336.92 333.998C2325.61 334.117 2314.5 336.934 2304.51 342.215C2302.77 331.047 2298.39 320.457 2291.73 311.325C2285.07 302.194 2276.32 294.786 2266.22 289.718C2249.36 281.261 2229.84 279.847 2211.94 285.785C2194.05 291.724 2179.24 304.529 2170.78 321.383C2168.29 326.351 2166.51 331.492 2165.25 336.664C2146.58 395.918 2178.5 484.351 2214.23 522.148C2265.88 528.191 2355.87 500.923 2392.19 450.534C2395.61 446.439 2398.65 441.931 2401.15 436.962Z" fill="#EA5959"/>
<path d="M2358.56 431.252C2361.43 425.538 2363.15 419.315 2363.61 412.939C2364.07 406.562 2363.28 400.157 2361.26 394.089C2359.25 388.02 2356.06 382.408 2351.88 377.571C2347.7 372.735 2342.61 368.77 2336.9 365.901C2329.98 362.427 2322.33 360.658 2314.59 360.741C2306.85 360.823 2299.24 362.756 2292.39 366.377C2291.2 358.727 2288.2 351.473 2283.64 345.218C2279.08 338.963 2273.09 333.889 2266.17 330.417C2254.63 324.626 2241.26 323.657 2229 327.724C2216.74 331.791 2206.6 340.561 2200.81 352.104C2199.1 355.51 2197.89 359.025 2197.02 362.566C2184.23 403.151 2206.11 463.706 2230.57 489.599C2265.93 493.722 2327.56 475.062 2352.43 440.547C2354.77 437.738 2356.86 434.658 2358.56 431.252Z" fill="#CA3E3E"/>
</g>
<defs>
<clipPath id="clip0_2045_16880">
<rect width="364.814" height="364.814" fill="white" transform="translate(928.32 312.446) rotate(-27.2702)"/>
</clipPath>
</defs>
</svg>
